<svg width="17" height="28" viewBox="0 0 17 28" fill="none" xmlns="http://www.w3.org/2000/svg">
<path d="M8.5 0.526672C3.80071 0.526672 0 4.80531 0 10.0955C0 17.2721 8.5 27.8662 8.5 27.8662C8.5 27.8662 17 17.2721 17 10.0955C17 4.80531 13.1993 0.526672 8.5 0.526672ZM8.5 13.5129C7.69488 13.5129 6.92273 13.1529 6.35343 12.512C5.78412 11.8711 5.46429 11.0019 5.46429 10.0955C5.46429 9.18914 5.78412 8.3199 6.35343 7.67901C6.92273 7.03812 7.69488 6.67806 8.5 6.67806C9.30512 6.67806 10.0773 7.03812 10.6466 7.67901C11.2159 8.3199 11.5357 9.18914 11.5357 10.0955C11.5357 11.0019 11.2159 11.8711 10.6466 12.512C10.0773 13.1529 9.30512 13.5129 8.5 13.5129Z" fill="white"/>
</svg>
