<svg width="59" height="59" viewBox="0 0 59 59" fill="none" xmlns="http://www.w3.org/2000/svg">
<circle cx="29.5" cy="29.5" r="29" stroke="#AEAEAE"/>
<path d="M39 18H45V40.5C45 41.6935 44.5259 42.8381 43.682 43.682C42.8381 44.5259 41.6935 45 40.5 45H19.5C18.3065 45 17.1619 44.5259 16.318 43.682C15.4741 42.8381 15 41.6935 15 40.5V15H39V18ZM39 21V40.5C39 40.8978 39.158 41.2794 39.4393 41.5607C39.7206 41.842 40.1022 42 40.5 42C40.8978 42 41.2794 41.842 41.5607 41.5607C41.842 41.2794 42 40.8978 42 40.5V21H39ZM18 18V40.5C18 40.8978 18.158 41.2794 18.4393 41.5607C18.7206 41.842 19.1022 42 19.5 42H36.255C36.0849 41.5182 35.9987 41.0109 36 40.5V18H18ZM21 30H33V33H21V30ZM21 36H33V39H21V36ZM21 21H33V27H21V21Z" fill="#333333"/>
</svg>
