<svg width="35" height="37" viewBox="0 0 35 37" fill="none" xmlns="http://www.w3.org/2000/svg">
<circle cx="17" cy="19" r="15" fill="white"/>
<path d="M22.4541 9.76465H12.1426C10.4968 9.76465 9.15771 11.1851 9.15771 12.9311V23.8698C9.15771 25.6157 10.4968 27.0366 12.1426 27.0366H22.4541C24.0999 27.0366 25.4393 25.6161 25.4393 23.8698V12.9311C25.4393 11.1851 24.1003 9.76465 22.4541 9.76465ZM17.2983 24.0865C14.3431 24.0865 11.9387 21.5358 11.9387 18.4004C11.9387 15.2655 14.3431 12.7148 17.2983 12.7148C20.2539 12.7148 22.6583 15.2655 22.6583 18.4004C22.6583 21.5354 20.2535 24.0865 17.2983 24.0865ZM22.8306 13.8904C22.1311 13.8904 21.5621 13.2868 21.5621 12.5451C21.5621 11.8034 22.1311 11.1999 22.8306 11.1999C23.5298 11.1999 24.0988 11.8034 24.0988 12.5451C24.0988 13.2868 23.5298 13.8904 22.8306 13.8904Z" fill="#333333"/>
<path d="M17.2982 15.1177C15.5923 15.1177 14.2031 16.5905 14.2031 18.4003C14.2031 20.2108 15.5923 21.6841 17.2982 21.6841C19.005 21.6841 20.3929 20.2108 20.3929 18.4003C20.3929 16.5909 19.0046 15.1177 17.2982 15.1177Z" fill="#333333"/>
<path d="M17.2984 0C7.74514 0 0 8.21635 0 18.3508C0 28.4853 7.74514 36.7017 17.2984 36.7017C26.8517 36.7017 34.5968 28.4853 34.5968 18.3508C34.5968 8.21635 26.8517 0 17.2984 0ZM27.7039 23.8697C27.7039 26.9409 25.3492 29.4389 22.4541 29.4389H12.1427C9.24799 29.4389 6.89292 26.9409 6.89292 23.8697V12.9309C6.89292 9.86011 9.24799 7.36176 12.1427 7.36176H22.4541C25.3492 7.36176 27.7039 9.86011 27.7039 12.9309V23.8697Z" fill="#333333"/>
</svg>
