<?xml version="1.0" encoding="UTF-8" standalone="no"?>
<!DOCTYPE svg PUBLIC "-//W3C//DTD SVG 1.1//EN" "http://www.w3.org/Graphics/SVG/1.1/DTD/svg11.dtd">
<svg width="100%" height="100%" viewBox="0 0 467 467" version="1.1" xmlns="http://www.w3.org/2000/svg" xmlns:xlink="http://www.w3.org/1999/xlink" xml:space="preserve" style="fill-rule:evenodd;clip-rule:evenodd;stroke-linecap:round;stroke-linejoin:round;stroke-miterlimit:1.5;"><circle cx="233.453" cy="233.453" r="227.203" style="stroke:#fff;stroke-width:12.5px;"/><path d="M115.536,170.827c-14.204,-0.09 -25.708,-11.649 -25.708,-25.874c0,-14.281 11.594,-25.875 25.875,-25.875l235.5,0c14.281,0 25.875,11.594 25.875,25.875c0,14.281 -11.594,25.875 -25.875,25.875l-235.5,0l-0.167,-0.001Z" style="fill:#fff;"/><path d="M115.536,259.327c-14.204,-0.09 -25.708,-11.649 -25.708,-25.874c0,-14.281 11.594,-25.875 25.875,-25.875l235.5,0c14.281,0 25.875,11.594 25.875,25.875c0,14.281 -11.594,25.875 -25.875,25.875l-235.5,0l-0.167,-0.001Z" style="fill:#fff;"/><path d="M115.536,347.827c-14.204,-0.09 -25.708,-11.649 -25.708,-25.874c0,-14.281 11.594,-25.875 25.875,-25.875l235.5,0c14.281,0 25.875,11.594 25.875,25.875c0,14.281 -11.594,25.875 -25.875,25.875l-235.5,0l-0.167,-0.001Z" style="fill:#fff;"/></svg>