<svg width="59" height="59" viewBox="0 0 59 59" fill="none" xmlns="http://www.w3.org/2000/svg">
<circle cx="29.5" cy="29.5" r="29" stroke="#AEAEAE"/>
<path d="M42.3337 28.3317H45.6671C45.6671 19.7817 39.2121 13.3333 30.6504 13.3333V16.6667C37.4204 16.6667 42.3337 21.5717 42.3337 28.3317Z" fill="#333333"/>
<path d="M30.6671 23.3333C34.1721 23.3333 35.6671 24.8283 35.6671 28.3333H39.0005C39.0005 22.9583 36.0421 20 30.6671 20V23.3333ZM36.3705 32.405C36.0502 32.1139 35.6294 31.9587 35.1968 31.972C34.7642 31.9854 34.3538 32.1664 34.0521 32.4767L30.0638 36.5783C29.1038 36.395 27.1738 35.7933 25.1871 33.8117C23.2005 31.8233 22.5988 29.8883 22.4205 28.935L26.5188 24.945C26.8295 24.6435 27.0107 24.233 27.0241 23.8003C27.0374 23.3676 26.8819 22.9467 26.5905 22.6267L20.4321 15.855C20.1405 15.5339 19.7353 15.3392 19.3024 15.3121C18.8695 15.285 18.4431 15.4278 18.1138 15.71L14.4971 18.8117C14.209 19.1008 14.037 19.4857 14.0138 19.8933C13.9888 20.31 13.5121 30.18 21.1655 37.8367C27.8421 44.5117 36.2055 45 38.5088 45C38.8455 45 39.0521 44.99 39.1071 44.9867C39.5147 44.9638 39.8993 44.7911 40.1871 44.5017L43.2871 40.8833C43.5696 40.5542 43.7126 40.1279 43.6858 39.6951C43.6591 39.2622 43.4646 38.8568 43.1438 38.565L36.3705 32.405Z" fill="#333333"/>
</svg>
