<svg width="35" height="37" viewBox="0 0 35 37" fill="none" xmlns="http://www.w3.org/2000/svg">
<path d="M17.2984 36.7017C26.852 36.7017 34.5968 28.4857 34.5968 18.3508C34.5968 8.21595 26.852 0 17.2984 0C7.74476 0 0 8.21595 0 18.3508C0 28.4857 7.74476 36.7017 17.2984 36.7017Z" fill="#333333"/>
<path fill-rule="evenodd" clip-rule="evenodd" d="M16.6449 26.3995H18.0026C18.0026 26.3995 18.4127 26.3517 18.6221 26.1123C18.8148 25.8924 18.8086 25.4796 18.8086 25.4796C18.8086 25.4796 18.7821 23.547 19.6276 23.2624C20.4611 22.982 21.5314 25.1302 22.6659 25.9562C23.5237 26.5814 24.1756 26.4443 24.1756 26.4443L27.209 26.3995C27.209 26.3995 28.7958 26.2958 28.0434 24.9722C27.9817 24.864 27.6052 23.9932 25.788 22.2038C23.8861 20.331 24.1408 20.6339 26.4319 17.3944C27.8272 15.4215 28.385 14.217 28.2108 13.7012C28.0446 13.2098 27.0184 13.3397 27.0184 13.3397L23.603 13.3623C23.603 13.3623 23.3498 13.3256 23.162 13.4447C22.9786 13.5615 22.8605 13.8336 22.8605 13.8336C22.8605 13.8336 22.3199 15.3603 21.599 16.6587C20.0781 19.3984 19.4701 19.543 19.2215 19.3728C18.6433 18.9764 18.7877 17.7801 18.7877 16.9302C18.7877 14.2753 19.1672 13.1683 18.0485 12.8817C17.6772 12.7865 17.404 12.7237 16.4546 12.7136C15.236 12.7002 14.2045 12.7175 13.6205 13.0211C13.2319 13.2229 12.9322 13.6727 13.1148 13.6985C13.3405 13.7306 13.8517 13.8448 14.1228 14.2363C14.4728 14.7414 14.4604 15.8759 14.4604 15.8759C14.4604 15.8759 14.6615 19.0012 13.9908 19.3895C13.5304 19.6558 12.8989 19.1121 11.543 16.6266C10.8483 15.3535 10.3238 13.9462 10.3238 13.9462C10.3238 13.9462 10.2227 13.6832 10.0423 13.5425C9.82333 13.3721 9.51743 13.3178 9.51743 13.3178L6.27195 13.3403C6.27195 13.3403 5.78474 13.3547 5.60589 13.5795C5.44678 13.7793 5.59325 14.1928 5.59325 14.1928C5.59325 14.1928 8.13413 20.4991 11.0111 23.6771C13.6491 26.5908 16.6449 26.3995 16.6449 26.3995Z" fill="white"/>
</svg>
